<svg width="192" height="192" viewBox="0 0 192 192" fill="none" xmlns="http://www.w3.org/2000/svg">
<path fill-rule="evenodd" clip-rule="evenodd" d="M61.44 0H69.12H76.8V7.68H69.12V15.36H61.44V7.68V0ZM92.16 7.68V15.36H84.48H76.8V7.68L84.48 7.68L92.16 7.68ZM99.84 7.68H92.16V0H99.84V7.68ZM115.2 15.36V7.68V0H107.52V7.68H99.84L99.84 15.36V23.04H92.16V30.72H99.84H107.52H115.2V38.4H107.52H99.84V46.08H92.16V53.76H84.48V46.08H76.8V53.76H69.12V46.08H61.44V53.76V61.44H53.76H46.08H38.4V69.12H30.72V61.44H23.04H15.36V69.12H7.68V61.44H0V69.12V76.8H7.68L7.68 84.48H0V92.16V99.84H7.68L7.68 107.52V115.2H0V122.88H7.68L7.68 115.2H15.36H23.04V107.52H30.72L30.72 115.2V122.88H38.4V130.56H46.08H53.76V122.88H46.08V115.2H53.76V107.52H46.08V115.2H38.4V107.52V99.84H46.08H53.76L53.76 92.16H61.44H69.12V99.84V107.52H61.44V115.2H69.12V122.88V130.56H61.44V138.24V145.92V153.6H69.12H76.8V161.28V168.96H69.12V161.28H61.44V168.96V176.64H69.12H76.8V184.32H69.12H61.44V192H69.12H76.8V184.32H84.48V176.64H92.16H99.84H107.52V168.96H115.2H122.88V161.28H130.56V168.96V176.64V184.32V192H138.24V184.32H145.92L145.92 192H153.6H161.28H168.96H176.64H184.32H192V184.32H184.32H176.64V176.64H184.32V168.96H192V161.28L184.32 161.28V153.6V145.92H192V138.24V130.56V122.88V115.2H184.32V107.52H192V99.84V92.16H184.32H176.64V84.48H168.96H161.28V76.8H153.6V69.12H145.92V61.44H138.24V69.12H145.92L145.92 76.8H138.24V84.48H130.56V76.8V69.12V61.44V53.76V46.08V38.4H122.88V30.72L115.2 30.72V23.04H122.88V15.36L115.2 15.36ZM115.2 15.36V23.04H107.52V15.36H115.2ZM115.2 53.76H122.88V46.08V38.4H115.2V46.08V53.76ZM122.88 84.48H130.56V92.16V99.84L122.88 99.84H115.2H107.52H99.84V107.52H92.16V99.84L84.48 99.84V92.16V84.48H92.16V92.16H99.84H107.52H115.2H122.88V84.48ZM92.16 69.12V61.44V53.76H99.84L99.84 46.08H107.52V53.76H115.2V61.44V69.12H122.88V76.8V84.48H115.2H107.52V76.8V69.12H99.84H92.16ZM92.16 76.8H84.48V69.12H92.16V76.8ZM92.16 76.8V84.48H99.84L99.84 76.8H92.16ZM84.48 107.52H92.16V115.2V122.88H84.48V130.56H92.16V138.24H84.48H76.8V130.56V122.88V115.2H84.48V107.52ZM84.48 107.52V99.84H76.8V107.52H84.48ZM107.52 115.2H115.2V107.52H122.88V115.2H130.56V122.88H122.88V130.56H115.2V138.24H122.88V145.92L115.2 145.92V153.6H122.88V161.28L115.2 161.28L107.52 161.28V153.6H99.84V145.92V138.24H107.52V130.56H99.84H92.16V122.88H99.84H107.52V115.2ZM107.52 115.2H99.84L99.84 107.52H107.52V115.2ZM145.92 76.8H153.6V84.48V92.16V99.84H145.92V92.16V84.48L145.92 76.8ZM184.32 107.52H176.64H168.96V115.2H176.64H184.32V122.88H176.64H168.96H161.28V115.2V107.52V99.84V92.16H168.96V99.84H176.64H184.32V107.52ZM145.92 184.32H153.6V176.64V168.96V161.28H145.92V168.96V176.64V184.32ZM69.12 92.16V84.48H76.8V92.16H69.12ZM38.4 92.16V99.84L30.72 99.84H23.04V107.52H15.36V99.84L15.36 92.16H23.04V84.48H30.72L30.72 92.16H38.4ZM46.08 76.8V84.48H53.76L53.76 92.16H46.08H38.4V84.48H30.72V76.8H38.4H46.08ZM61.44 69.12V76.8H53.76H46.08V69.12H53.76H61.44ZM61.44 69.12H69.12V61.44H61.44V69.12ZM15.36 92.16H7.68L7.68 84.48H15.36L15.36 92.16ZM15.36 69.12H23.04V76.8H15.36L15.36 69.12ZM76.8 53.76H84.48V61.44H76.8V53.76ZM168.96 184.32H161.28V176.64V168.96H168.96V176.64V184.32ZM84.48 168.96H92.16V161.28H84.48V168.96ZM168.96 161.28H176.64V153.6L176.64 145.92H168.96V138.24V130.56H161.28V138.24V145.92V153.6H168.96V161.28ZM145.92 153.6H153.6V145.92V138.24V130.56H145.92H138.24H130.56V138.24V145.92V153.6H138.24H145.92ZM84.48 153.6H92.16V145.92H84.48V153.6ZM184.32 138.24H176.64V130.56H184.32V138.24ZM138.24 122.88H145.92V115.2H153.6V107.52H145.92H138.24V115.2V122.88ZM183.936 0H146.304H138.24V8.064V45.696V53.76H146.304H183.936H192V45.696V8.064V0H183.936ZM183.936 45.696H146.304V8.064H183.936V45.696ZM176.64 15.36H153.6V38.4H176.64V15.36ZM122.88 0H130.56V7.68H122.88V0ZM61.44 23.04H69.12H76.8V30.72V38.4H69.12V30.72H61.44V23.04ZM161.28 61.44H168.96V69.12H161.28V61.44ZM184.32 61.44H176.64V69.12V76.8H184.32V69.12H192V61.44H184.32ZM138.24 138.24H145.92V145.92H138.24V138.24ZM122.88 176.64H115.2V184.32H107.52V192H115.2V184.32H122.88V176.64ZM92.16 184.32H99.84V192H92.16V184.32ZM45.696 0H8.064H0V8.064V45.696V53.76H8.064H45.696H53.76V45.696V8.064V0H45.696ZM45.696 45.696H8.064V8.064H45.696V45.696ZM15.36 15.36H38.4V38.4H15.36V15.36ZM45.696 138.24H8.064H0V146.304V183.936V192H8.064H45.696H53.76V183.936V146.304V138.24H45.696ZM45.696 183.936H8.064V146.304H45.696V183.936ZM15.36 153.6H38.4V176.64H15.36V153.6Z" fill="#FF0000"/>
</svg>
